<svg xmlns="http://www.w3.org/2000/svg" xmlns:xlink="http://www.w3.org/1999/xlink" width="512" zoomAndPan="magnify" viewBox="0 0 384 383.999986" height="512" preserveAspectRatio="xMidYMid meet" version="1.0"><defs><clipPath id="a01d4dacf1"><path d="M 0.546875 93.207031 L 199.804688 93.207031 L 199.804688 292.464844 L 0.546875 292.464844 Z M 0.546875 93.207031 " clip-rule="nonzero"/></clipPath><clipPath id="7b3be95293"><path d="M 190.425781 93.207031 L 283.453125 93.207031 L 283.453125 293.820312 L 190.425781 293.820312 Z M 190.425781 93.207031 " clip-rule="nonzero"/></clipPath><clipPath id="7126052a99"><path d="M 0.425781 0.207031 L 93.453125 0.207031 L 93.453125 200.820312 L 0.425781 200.820312 Z M 0.425781 0.207031 " clip-rule="nonzero"/></clipPath><clipPath id="d19fda204d"><rect x="0" width="94" y="0" height="201"/></clipPath><clipPath id="9d55227c76"><path d="M 0.417969 0.125 L 190.296875 0.125 L 190.296875 93.152344 L 0.417969 93.152344 Z M 0.417969 0.125 " clip-rule="nonzero"/></clipPath><clipPath id="4f6155731b"><path d="M 0.417969 0.125 L 190.296875 0.125 L 190.296875 93.152344 L 0.417969 93.152344 Z M 0.417969 0.125 " clip-rule="nonzero"/></clipPath><clipPath id="2a855bd1bc"><rect x="0" width="191" y="0" height="94"/></clipPath><clipPath id="5ca2eb7e07"><path d="M 220.933594 0.179688 L 283.328125 0.179688 L 283.328125 62.574219 L 220.933594 62.574219 Z M 220.933594 0.179688 " clip-rule="nonzero"/></clipPath><clipPath id="18ea767169"><path d="M 0.933594 0.179688 L 63.328125 0.179688 L 63.328125 62.574219 L 0.933594 62.574219 Z M 0.933594 0.179688 " clip-rule="nonzero"/></clipPath><clipPath id="311468428e"><rect x="0" width="64" y="0" height="63"/></clipPath><clipPath id="88e0b0b00b"><rect x="0" width="284" y="0" height="295"/></clipPath></defs><rect x="-38.4" width="460.8" fill="#ffffff" y="-38.399999" height="460.799983" fill-opacity="1"/><rect x="-38.4" width="460.8" fill="#f4f7fb" y="-38.399999" height="460.799983" fill-opacity="1"/><g transform="matrix(1, 0, 0, 1, 50, 45)"><g clip-path="url(#88e0b0b00b)"><g clip-path="url(#a01d4dacf1)"><path fill="#0a2540" d="M 201.136719 182.53125 L 201.136719 93.207031 C 90.351562 93.207031 0.546875 183.015625 0.546875 293.800781 L 89.871094 293.800781 C 89.871094 232.347656 139.6875 182.53125 201.136719 182.53125 Z M 201.136719 182.53125 " fill-opacity="1" fill-rule="nonzero"/></g><g clip-path="url(#7b3be95293)"><g transform="matrix(1, 0, 0, 1, 190, 93)"><g clip-path="url(#d19fda204d)"><g clip-path="url(#7126052a99)"><path fill="#0a2540" d="M 0.425781 0.207031 L 93.453125 0.207031 L 93.453125 200.800781 L 0.425781 200.800781 Z M 0.425781 0.207031 " fill-opacity="1" fill-rule="nonzero"/></g></g></g></g><g clip-path="url(#9d55227c76)"><g transform="matrix(1, 0, 0, 1, 0.000000000000007105, 0)"><g clip-path="url(#2a855bd1bc)"><g clip-path="url(#4f6155731b)"><path fill="#0a2540" d="M 190.296875 0.125 L 190.296875 93.152344 L 0.242188 93.152344 L 0.242188 0.125 Z M 190.296875 0.125 " fill-opacity="1" fill-rule="nonzero"/></g></g></g></g><g clip-path="url(#5ca2eb7e07)"><g transform="matrix(1, 0, 0, 1, 220, 0)"><g clip-path="url(#311468428e)"><g clip-path="url(#18ea767169)"><path fill="#000000" d="M 63.328125 0.179688 L 63.328125 62.574219 L 0.933594 62.574219 L 0.933594 0.179688 Z M 63.328125 0.179688 " fill-opacity="1" fill-rule="nonzero"/></g></g></g></g></g></g></svg>